<?xml version="1.0" standalone="no"?>
<!DOCTYPE svg PUBLIC "-//W3C//DTD SVG 20010904//EN"
 "http://www.w3.org/TR/2001/REC-SVG-20010904/DTD/svg10.dtd">
<svg version="1.0" xmlns="http://www.w3.org/2000/svg"
 width="542.000000pt" height="542.000000pt" viewBox="0 0 542.000000 542.000000"
 preserveAspectRatio="xMidYMid meet">
<metadata>
Created by potrace 1.11, written by Peter Selinger 2001-2013
</metadata>
<g transform="translate(0.000000,542.000000) scale(0.100000,-0.100000)"
fill="#000000" stroke="none">
<path d="M4980 4379 c-65 -10 -84 -14 -195 -44 -55 -14 -107 -28 -116 -30 -37
-8 -105 -29 -114 -36 -5 -3 -26 -10 -45 -14 -19 -4 -62 -16 -95 -27 -33 -11
-96 -22 -140 -23 -106 -5 -119 -7 -195 -38 -36 -14 -99 -33 -140 -42 -41 -10
-127 -34 -190 -55 -135 -45 -311 -93 -317 -86 -3 2 -20 -2 -38 -10 -19 -8 -47
-14 -62 -14 -15 0 -40 -7 -55 -14 -16 -9 -28 -10 -28 -5 0 6 -5 7 -10 4 -6 -4
-61 -17 -123 -30 -61 -13 -127 -31 -146 -40 -18 -10 -44 -17 -58 -17 -13 0
-27 -7 -30 -14 -3 -8 -13 -14 -22 -15 -36 -1 37 -21 94 -25 33 -2 68 -7 78
-10 9 -3 17 -1 17 5 0 8 6 8 20 1 11 -5 28 -14 38 -18 18 -9 221 -8 282 1 19
3 77 8 128 12 51 3 121 14 155 25 184 60 214 68 237 66 14 -1 32 3 40 9 16 12
103 42 135 47 24 4 23 -3 -10 -87 -13 -33 -42 -121 -65 -195 -72 -235 -166
-519 -211 -640 -26 -70 -77 -226 -94 -290 -12 -40 -36 -138 -40 -161 -3 -14
-11 -41 -19 -60 -15 -35 -41 -132 -50 -184 -11 -62 -18 -92 -36 -152 -10 -33
-22 -81 -25 -105 -3 -23 -13 -65 -20 -93 -8 -27 -16 -63 -19 -80 -3 -16 -10
-57 -16 -90 -9 -50 -9 -66 4 -97 15 -35 18 -37 42 -28 26 10 48 5 40 -9 -5 -7
-6 -14 -24 -103 -14 -70 22 -46 43 30 8 27 25 29 25 3 0 -40 18 -29 44 24 14
31 26 60 26 65 0 5 5 12 12 16 11 7 11 1 -7 -82 -4 -18 6 -6 25 31 32 62 43
88 79 190 12 33 28 72 37 88 8 15 12 32 9 37 -3 6 -2 10 3 10 4 0 14 24 22 53
19 75 30 96 54 99 14 2 21 10 21 24 1 12 6 28 12 36 7 7 13 25 15 38 2 14 7
30 10 36 4 6 10 26 13 44 3 19 11 40 17 47 6 7 6 13 1 13 -5 0 -9 9 -10 20 -1
11 3 19 9 17 11 -2 14 4 48 123 28 98 49 142 66 136 9 -3 18 14 29 52 9 31 23
68 31 82 15 28 50 133 58 172 2 14 12 38 21 52 10 14 14 26 10 26 -4 0 -1 10
8 23 8 12 18 43 22 67 5 32 20 59 51 95 24 27 44 56 44 63 0 25 34 73 98 140
42 44 66 78 73 106 6 23 15 46 19 51 5 6 10 22 12 35 2 14 7 30 10 36 4 6 9
22 12 37 2 15 8 32 13 39 4 7 8 15 8 18 1 3 9 22 18 44 9 21 17 44 17 50 0 13
55 36 84 36 9 0 31 7 49 17 22 11 60 17 121 18 78 1 102 -3 184 -31 83 -29 97
-32 114 -19 11 7 25 12 32 9 6 -2 20 11 30 31 11 19 34 44 52 54 26 16 36 31
48 73 16 55 17 65 13 183 -3 81 -12 111 -39 142 -17 18 -25 20 -46 12 -14 -5
-39 -7 -56 -3 -41 9 -219 11 -276 3z m-114 -386 c-3 -4 -6 -1 -6 6 0 7 -9 3
-20 -10 -10 -13 -19 -19 -20 -14 0 6 8 21 17 32 15 19 19 20 26 7 5 -9 6 -18
3 -21z m54 18 c6 -11 6 -22 1 -25 -5 -3 -11 5 -13 19 -6 30 -2 32 12 6z m-200
-18 c8 -1 18 3 22 10 6 9 8 9 8 -1 0 -7 4 -10 10 -7 6 3 7 -1 4 -9 -3 -9 -10
-16 -16 -16 -5 0 -7 -4 -3 -9 6 -10 -11 -24 -34 -28 -8 -1 -18 -8 -22 -15 -5
-8 -9 8 -9 40 0 40 3 51 13 45 6 -4 19 -8 27 -10z m-342 -13 c-15 -24 -24 -25
-32 -4 -3 8 -2 13 2 10 4 -2 14 -1 22 5 21 13 22 11 8 -11z m776 -34 c13 -1
20 -10 22 -28 2 -22 -1 -28 -18 -28 -11 0 -22 8 -25 20 -3 10 -14 22 -24 25
-10 4 -19 13 -19 21 0 12 4 13 23 2 12 -6 30 -12 41 -12z m-749 -5 c3 -5 1
-12 -5 -16 -5 -3 -10 1 -10 9 0 18 6 21 15 7z m-30 -21 c-3 -5 1 -10 9 -10 9
0 16 -4 16 -9 0 -5 -10 -7 -22 -4 -22 4 -23 4 -4 -11 24 -19 31 -50 10 -42 -8
3 -14 0 -14 -7 0 -7 -7 -3 -15 7 -13 17 -15 18 -15 3 0 -9 -5 -17 -11 -17 -6
0 -9 6 -6 14 3 8 -1 17 -10 20 -12 5 -13 9 -3 21 7 9 15 13 18 10 3 -3 11 4
19 15 14 20 40 29 28 10z m-70 -70 c3 -5 2 -10 -4 -10 -5 0 -13 5 -16 10 -3 6
-2 10 4 10 5 0 13 -4 16 -10z m147 -40 c-1 -26 2 -30 19 -25 17 6 18 3 10 -18
-6 -14 -7 -28 -4 -31 4 -3 1 -6 -6 -6 -8 0 -10 7 -6 20 4 11 2 20 -4 20 -11 0
-15 -16 -13 -55 2 -37 -21 -137 -28 -125 -4 6 -11 11 -16 11 -4 -1 -9 9 -11
23 -3 21 0 24 19 19 23 -5 23 -4 -2 17 -14 12 -19 19 -12 15 6 -3 12 -1 12 5
0 6 4 9 8 6 4 -2 9 7 10 22 1 15 4 36 6 47 3 11 5 38 5 59 1 22 4 36 8 33 3
-4 6 -20 5 -37z m-42 9 c0 -5 -6 -7 -12 -3 -9 5 -9 2 1 -9 10 -13 10 -17 1
-17 -7 0 -10 -7 -6 -16 3 -9 1 -14 -5 -12 -6 2 -10 7 -10 11 1 4 1 18 1 32 0
16 6 25 15 25 8 0 15 -5 15 -11z m-64 -81 c-8 14 3 16 24 2 15 -9 14 -11 -29
-22 -15 -4 -23 -48 -9 -48 5 0 13 -10 18 -22 7 -18 9 -19 9 -5 1 9 5 17 9 17
5 0 8 -10 6 -22 -1 -13 -3 -29 -3 -36 -1 -7 -6 -10 -13 -6 -8 5 -9 2 -5 -10 6
-14 3 -17 -9 -12 -8 3 -21 6 -27 6 -7 0 -6 4 2 9 12 8 12 12 2 25 -18 21 -43
9 -35 -18 l6 -21 -16 21 c-22 30 -15 75 14 101 16 15 20 23 11 23 -11 0 -9 4
5 14 15 11 22 12 33 3 12 -9 13 -9 7 1z m-106 -113 c0 -5 -5 -3 -10 5 -5 8
-10 20 -10 25 0 6 5 3 10 -5 5 -8 10 -19 10 -25z m147 -67 c-3 -8 -6 -5 -6 6
-1 11 2 17 5 13 3 -3 4 -12 1 -19z m-67 -28 c13 -8 12 -10 -2 -10 -10 0 -18
-5 -18 -11 0 -5 -4 -8 -10 -4 -9 6 -3 35 9 35 3 0 13 -5 21 -10z m0 -40 c0 -5
-5 -10 -11 -10 -5 0 -7 5 -4 10 3 6 8 10 11 10 2 0 4 -4 4 -10z m-30 -33 c0
-5 -6 -5 -12 -2 -7 4 -5 0 5 -8 17 -14 17 -15 0 -22 -12 -5 -14 -9 -5 -12 22
-8 13 -19 -19 -21 -24 -2 -32 2 -36 19 -4 15 -8 17 -14 8 -4 -8 -11 -10 -15
-6 -4 3 -1 13 6 22 10 12 16 13 27 3 8 -6 13 -7 11 -2 -5 15 36 52 44 40 4 -6
8 -15 8 -19z m-80 -67 c0 -5 -8 -10 -17 -10 -15 0 -16 2 -3 10 19 12 20 12 20
0z m-30 -80 c0 -5 -5 -10 -11 -10 -5 0 -7 5 -4 10 3 6 8 10 11 10 2 0 4 -4 4
-10z m-20 -35 c10 -12 10 -15 -4 -15 -9 0 -16 7 -16 15 0 8 2 15 4 15 2 0 9
-7 16 -15z m50 -277 c0 -18 -2 -20 -9 -8 -6 8 -7 18 -5 22 9 14 14 9 14 -14z
m-146 -233 c-4 -8 -11 -12 -16 -9 -6 4 -5 10 3 15 19 12 19 11 13 -6z m-94
-487 c0 -5 -9 -3 -20 4 -11 7 -20 16 -20 20 0 5 9 3 20 -4 11 -7 20 -16 20
-20z"/>
<path d="M2395 4262 c-40 -9 -66 -39 -89 -102 -13 -36 -31 -83 -41 -105 -10
-22 -19 -49 -20 -60 -2 -11 -19 -50 -38 -88 -21 -40 -34 -77 -31 -90 2 -16 -4
-31 -21 -45 -15 -13 -25 -33 -25 -48 0 -14 -5 -35 -12 -47 -13 -25 -67 -172
-73 -200 -2 -10 -20 -36 -39 -57 -32 -36 -39 -52 -51 -126 -5 -35 -51 -141
-70 -164 -7 -8 -24 -46 -38 -85 -18 -53 -32 -74 -54 -87 -29 -18 -233 -85
-287 -95 -27 -5 -28 -4 -22 18 4 13 11 38 15 54 4 17 14 41 21 54 6 13 16 37
21 53 7 25 6 29 -7 24 -13 -5 -15 1 -9 36 3 24 8 66 11 93 2 28 10 70 18 95
l15 45 2 -40 c1 -22 0 -44 -1 -50 -16 -78 -7 -102 11 -28 16 62 16 65 34 133
28 105 29 115 10 100 -12 -10 -15 -10 -15 4 0 9 -4 16 -10 16 -14 0 -12 -23 3
-39 10 -10 8 -15 -8 -27 -19 -14 -20 -13 -23 13 -2 24 5 58 34 158 3 11 8 49
10 85 2 36 9 91 15 122 14 67 13 74 -7 70 -11 -2 -15 4 -14 20 4 41 1 47 -30
63 -17 9 -36 27 -43 42 -10 22 -99 73 -129 73 -5 0 -33 11 -62 25 -49 23 -53
24 -86 9 -38 -17 -66 -65 -99 -169 -20 -62 -50 -174 -57 -211 -6 -32 -46 -180
-95 -349 -24 -82 -44 -172 -45 -200 -2 -100 -45 -252 -73 -262 -17 -7 -31 -23
-31 -37 0 -6 7 -1 15 10 14 19 14 19 15 0 0 -11 -12 -33 -27 -48 -15 -15 -21
-28 -15 -28 17 0 10 -49 -8 -60 -9 -6 -13 -23 -11 -51 1 -23 -3 -55 -10 -71
-11 -26 -13 -27 -28 -14 -14 13 -20 13 -37 3 -10 -8 -38 -13 -61 -12 -26 2
-47 -3 -54 -11 -6 -8 -15 -11 -20 -8 -5 3 -9 -2 -9 -11 0 -11 -6 -15 -17 -11
-10 3 -30 0 -44 -8 -33 -17 -79 -10 -80 13 0 9 -3 11 -5 4 -3 -7 -11 -10 -19
-7 -7 3 -16 1 -20 -5 -3 -6 -13 -11 -21 -11 -8 0 -12 5 -9 10 9 15 -7 12 -29
-5 -25 -19 -36 -19 -36 1 0 11 -6 14 -22 8 -13 -4 -25 -9 -28 -13 -8 -10 -98
-13 -103 -4 -3 5 -23 7 -44 5 -72 -7 -160 -107 -115 -131 41 -22 199 -33 428
-32 150 2 152 1 158 -21 6 -22 7 -22 20 -5 9 11 17 14 21 8 7 -13 55 -11 55 2
0 5 9 7 20 4 10 -3 21 0 24 7 2 6 5 3 5 -7 1 -20 -19 -95 -50 -188 -10 -31
-21 -71 -24 -90 -12 -67 -26 -125 -45 -184 -10 -33 -21 -73 -23 -90 -9 -60
-49 -175 -61 -175 -8 0 -13 -17 -13 -48 -1 -26 -8 -76 -16 -112 -18 -81 -15
-264 7 -327 8 -25 7 -25 51 -25 52 -1 65 2 65 14 0 6 7 20 16 30 9 10 18 35
20 55 2 21 10 58 18 83 13 42 15 43 23 21 5 -13 8 -40 7 -61 -1 -29 1 -37 12
-33 14 5 37 73 32 96 -2 11 1 24 23 110 5 20 16 37 23 37 7 0 21 9 31 20 27
30 37 24 29 -15 -8 -43 0 -45 21 -4 16 29 17 30 35 14 17 -16 19 -16 27 2 5
10 16 38 23 61 9 29 22 47 37 53 13 5 23 17 23 28 0 10 9 21 20 24 11 3 20 12
20 21 0 9 11 39 25 66 l25 50 -25 0 c-14 0 -25 -4 -25 -10 0 -5 -6 -10 -14
-10 -22 0 -7 40 20 50 12 5 26 19 29 32 4 13 21 39 36 59 19 24 38 71 55 134
29 109 34 131 39 160 1 11 10 46 18 77 10 38 11 58 4 61 -13 4 -2 46 21 75 11
14 29 24 43 24 59 -1 79 -5 79 -16 0 -7 3 -7 8 -1 4 6 23 10 42 11 19 0 69 3
110 6 72 6 76 5 78 -16 0 -11 -5 -30 -12 -41 -17 -27 -38 -133 -34 -169 3 -16
-5 -68 -18 -115 -21 -84 -35 -161 -39 -211 -29 -406 -26 -640 9 -640 6 0 30 9
53 20 31 14 44 26 48 47 9 41 21 58 39 57 9 -1 23 11 32 27 13 26 17 28 36 18
17 -9 24 -8 34 6 10 13 17 14 33 6 25 -14 27 -14 29 2 2 29 21 89 32 102 7 8
19 15 26 15 19 0 46 44 39 63 -4 10 1 17 14 22 28 8 54 71 45 107 -4 19 2 47
17 82 19 48 24 53 40 43 28 -17 44 3 32 40 -7 19 -6 39 2 63 15 42 10 60 -17
60 -15 0 -18 4 -13 18 12 28 32 105 37 143 6 43 40 110 72 142 22 22 46 82 46
115 0 7 7 15 15 18 8 4 15 12 15 19 0 7 7 18 15 25 13 10 15 9 15 -12 0 -13
-7 -48 -15 -78 -31 -117 -31 -109 -4 -75 13 17 27 33 32 36 5 4 6 12 3 18 -10
16 18 119 48 176 14 26 26 56 26 67 0 18 49 150 88 236 10 23 28 49 38 57 24
17 8 37 -24 28 -25 -6 -46 -42 -82 -141 -24 -67 -35 -81 -53 -63 -7 7 -6 16 6
29 9 10 21 41 27 70 8 35 20 59 38 74 21 18 26 30 24 55 -2 23 6 45 32 82 19
28 38 66 41 83 4 18 27 63 51 100 25 36 53 86 64 111 11 24 27 50 35 57 8 7
15 26 15 42 0 16 7 39 15 52 8 12 26 59 39 104 14 45 43 132 64 194 22 62 40
122 40 133 0 47 -19 94 -46 110 -49 31 -82 68 -82 92 0 24 -43 53 -79 53 -30
0 -143 30 -166 44 -29 18 -47 23 -70 18z m-231 -1144 c-13 -26 -24 -56 -24
-66 0 -11 -7 -25 -15 -32 -23 -19 -29 9 -10 53 8 20 15 45 15 55 0 11 7 25 15
32 8 7 15 22 15 34 1 20 1 20 14 -4 13 -22 11 -30 -10 -72z m49 -162 c-15 -36
-31 -66 -36 -66 -12 0 2 49 31 110 36 76 41 39 5 -44z m100 -303 c3 -5 -8 -20
-24 -34 -26 -24 -29 -25 -29 -7 0 32 40 63 53 41z m-387 -197 c1 -30 -7 -39
-29 -30 -12 4 -13 11 -5 35 12 36 33 33 34 -5z m-1159 -50 c-2 -6 -14 -9 -27
-8 -12 2 -26 -1 -29 -6 -4 -6 -11 -4 -19 4 -11 12 -9 16 9 22 28 11 71 3 66
-12z m1137 8 c22 -8 20 -22 -10 -88 -19 -42 -24 -64 -18 -84 12 -43 11 -65 -4
-89 -8 -13 -16 -47 -17 -75 -2 -29 -10 -70 -19 -90 -9 -21 -16 -55 -16 -77 0
-22 -5 -43 -12 -47 -19 -12 -40 28 -34 66 3 19 10 62 15 95 5 33 12 67 16 76
3 10 2 20 -4 23 -12 8 9 82 44 150 14 27 25 64 25 82 0 30 8 64 15 64 2 0 10
-3 19 -6z m118 -39 c-5 -16 -11 -25 -14 -20 -6 11 10 61 17 53 2 -2 1 -17 -3
-33z m-1337 -5 c3 -5 1 -10 -4 -10 -6 0 -11 5 -11 10 0 6 2 10 4 10 3 0 8 -4
11 -10z m1235 -240 c-6 -11 -12 -20 -14 -20 -2 0 -2 9 1 20 3 11 9 20 15 20 5
0 4 -9 -2 -20z m174 -141 c-10 -16 -24 -9 -24 12 0 18 2 19 15 9 8 -7 12 -16
9 -21z m-1064 -153 c0 -3 -4 -8 -10 -11 -5 -3 -10 -1 -10 4 0 6 5 11 10 11 6
0 10 -2 10 -4z m-30 -147 c-7 -16 -19 -29 -26 -29 -18 0 -18 3 8 53 16 31 23
37 26 24 2 -10 -2 -32 -8 -48z m-40 -106 c0 -14 -19 -38 -25 -32 -8 8 5 39 16
39 5 0 9 -3 9 -7z"/>
<path d="M3028 3534 c-3 -5 -18 -49 -33 -99 -15 -49 -40 -115 -56 -147 -34
-67 -97 -225 -129 -323 -13 -38 -31 -86 -41 -105 -24 -47 -92 -284 -102 -355
-3 -22 -11 -62 -17 -90 -7 -27 -13 -57 -15 -65 -2 -8 -8 -35 -14 -60 -5 -25
-13 -60 -16 -79 -3 -18 -23 -86 -44 -151 -71 -212 -103 -414 -80 -495 5 -17
21 -38 39 -48 16 -10 33 -29 36 -43 9 -34 19 -30 47 19 14 25 29 40 38 38 15
-4 36 -5 56 -2 7 0 22 20 34 44 35 69 67 105 99 112 17 4 35 16 41 27 6 11 17
17 25 14 18 -7 64 36 64 59 0 8 10 20 23 26 23 11 55 69 63 116 3 15 16 49 29
74 13 26 23 55 23 65 -1 11 7 49 16 87 12 47 15 80 10 110 -4 23 -8 49 -8 57
-2 31 36 135 55 157 16 16 19 29 15 50 -5 21 1 40 25 78 21 33 32 62 31 83 -1
19 5 43 13 55 9 14 11 27 6 36 -6 9 -3 30 6 55 8 23 17 55 19 71 5 32 23 101
75 285 26 93 32 132 31 200 -1 47 -5 98 -10 115 l-8 29 -23 -26 c-23 -26 -23
-26 -42 -7 -12 12 -33 19 -56 19 -21 0 -45 4 -53 10 -10 6 -25 3 -47 -11 -23
-14 -37 -17 -50 -11 -10 5 -24 7 -31 5 -7 -3 -19 3 -26 12 -7 10 -15 14 -18 9z
m-47 -935 c-2 -8 -3 -22 -3 -33 2 -30 -10 -9 -13 24 -2 20 1 29 9 27 6 -3 9
-11 7 -18z m-5 -130 c3 -6 20 -17 38 -25 21 -9 25 -13 12 -14 -13 0 -17 -5
-13 -20 4 -15 0 -20 -14 -20 -10 0 -19 -5 -19 -11 0 -5 5 -7 11 -4 6 4 5 -2
-3 -14 -8 -13 -14 -16 -16 -9 -2 7 -6 20 -9 28 -4 8 -6 18 -5 22 1 4 -5 5 -13
2 -10 -4 -15 0 -15 16 0 11 -4 18 -10 15 -5 -3 -10 -1 -10 5 0 15 34 8 40 -7
4 -9 9 -6 18 7 11 18 10 22 -10 30 -17 6 -18 9 -6 9 9 1 20 -4 24 -10z m51
-11 c-3 -8 -6 -5 -6 6 -1 11 2 17 5 13 3 -3 4 -12 1 -19z m-130 -10 c-3 -8 -6
-5 -6 6 -1 11 2 17 5 13 3 -3 4 -12 1 -19z m114 -114 c11 -14 10 -15 -7 -12
-13 2 -18 -2 -16 -14 2 -11 -3 -18 -13 -18 -20 0 -19 11 3 38 20 26 17 25 33
6z m-91 -314 c-8 -15 -9 -25 -2 -29 6 -4 4 -11 -4 -19 -11 -10 -14 -10 -14 0
0 9 -3 9 -10 -2 -17 -27 -10 0 11 41 11 23 23 39 26 36 2 -3 -1 -15 -7 -27z
m-70 -159 c0 -5 -6 -14 -14 -20 -12 -10 -13 -8 -9 8 5 21 23 30 23 12z m-57
-42 c3 -13 1 -19 -6 -16 -15 5 -22 37 -9 37 5 0 12 -9 15 -21z"/>
<path d="M448 2593 c7 -3 16 -2 19 1 4 3 -2 6 -13 5 -11 0 -14 -3 -6 -6z"/>
<path d="M360 2568 c-19 -7 -21 -11 -11 -18 9 -5 20 -3 29 6 19 20 13 24 -18
12z"/>
<path d="M400 2562 c0 -7 8 -12 17 -10 24 4 27 24 3 24 -11 0 -20 -6 -20 -14z"/>
<path d="M480 2573 c0 -6 8 -19 17 -28 16 -16 17 -16 29 0 7 9 17 14 22 11 6
-3 12 1 16 9 6 15 -15 21 -28 8 -11 -11 -40 -10 -48 2 -5 6 -8 6 -8 -2z"/>
<path d="M415 2300 c3 -5 8 -10 11 -10 2 0 4 5 4 10 0 6 -5 10 -11 10 -5 0 -7
-4 -4 -10z"/>
<path d="M2210 2171 c-17 -33 -27 -146 -11 -137 6 4 11 13 9 19 -1 7 4 35 11
64 15 61 11 90 -9 54z"/>
<path d="M2125 2120 c-9 -16 -11 -30 -6 -30 5 0 14 14 20 30 5 17 8 30 6 30
-3 0 -11 -13 -20 -30z"/>
<path d="M2357 1324 c-7 -12 -77 -278 -77 -293 0 -30 18 4 35 64 16 60 19 65
45 65 41 0 54 -21 41 -67 -13 -45 -14 -73 -3 -73 15 0 34 120 22 135 -8 10 -5
19 13 37 27 27 45 104 29 120 -13 13 -98 23 -105 12z m82 -23 c9 -6 11 -18 6
-42 -10 -48 -30 -76 -59 -81 -44 -9 -49 3 -31 71 16 55 20 61 44 61 14 0 32
-4 40 -9z"/>
<path d="M2672 1314 c-26 -18 -34 -36 -64 -143 -32 -120 -26 -151 32 -151 50
1 68 28 100 145 32 121 34 142 11 155 -28 14 -53 13 -79 -6z m72 -20 c7 -19
-39 -200 -59 -230 -20 -31 -52 -36 -69 -13 -12 17 -10 33 13 119 14 55 34 109
43 120 21 24 63 26 72 4z"/>
<path d="M2948 1324 c-7 -10 -66 -228 -75 -275 -5 -26 -4 -27 51 -28 31 0 56
4 56 9 0 6 -21 10 -46 10 -39 0 -45 3 -40 18 22 71 67 255 63 265 -2 7 -6 7
-9 1z"/>
<path d="M3210 1288 c-6 -24 -24 -91 -41 -150 -16 -59 -29 -109 -29 -110 0 -8
110 -5 115 3 4 5 -13 9 -39 9 -30 0 -46 4 -46 13 0 10 48 197 66 260 3 9 1 17
-5 17 -6 0 -15 -19 -21 -42z"/>
<path d="M3494 1317 c-2 -7 -22 -77 -43 -155 l-38 -141 59 0 c32 1 61 5 64 10
3 5 -18 9 -45 9 -28 0 -51 3 -51 7 0 4 8 33 17 65 l17 58 43 0 c24 0 43 4 43
10 0 5 -16 8 -36 6 -19 -1 -37 1 -40 5 -3 5 2 33 11 64 l16 55 50 0 c27 0 49
5 49 10 0 15 -110 13 -116 -3z"/>
<path d="M3777 1323 c-7 -11 -77 -278 -77 -292 0 -30 19 5 35 64 17 60 20 65
45 65 33 0 51 -19 45 -46 -2 -10 -7 -33 -10 -50 -4 -17 -3 -34 2 -37 5 -3 15
21 22 54 10 49 10 64 0 76 -11 12 -10 17 4 25 20 11 47 70 47 104 0 13 -8 27
-17 32 -25 12 -90 15 -96 5z m82 -27 c9 -11 9 -25 2 -54 -12 -44 -26 -59 -56
-62 -41 -4 -46 -1 -39 28 22 100 24 102 53 102 16 0 34 -6 40 -14z"/>
<path d="M4035 1186 c-21 -77 -40 -146 -42 -152 -6 -16 86 -15 118 2 31 15 33
20 65 134 39 140 32 160 -59 158 l-45 0 -37 -142z m115 74 c0 -9 -4 -30 -9
-46 -5 -16 -17 -54 -25 -85 -11 -41 -22 -58 -36 -62 -11 -3 -22 -2 -24 2 -5 8
45 190 57 208 11 17 37 5 37 -17z"/>
<path d="M4361 1263 c-20 -69 -61 -229 -61 -237 0 -3 29 -4 65 -3 45 1 65 5
65 14 0 7 0 16 0 20 0 4 -13 8 -30 9 -41 2 -43 6 -31 51 10 36 14 40 42 39 24
-1 34 4 40 22 8 20 5 22 -27 22 -29 0 -35 3 -30 16 3 9 9 27 12 40 6 25 11 27
57 26 17 0 31 6 37 18 13 24 7 27 -62 29 l-57 2 -20 -68z"/>
<path d="M4667 1323 c-6 -10 -77 -279 -77 -292 0 -4 10 -8 22 -7 18 1 25 11
37 61 16 59 24 68 48 52 8 -5 8 -19 -2 -56 -14 -53 -12 -61 15 -61 22 0 51
105 39 138 -5 14 -4 22 2 22 14 0 39 63 39 99 0 19 -7 34 -17 39 -24 12 -100
15 -106 5z m73 -64 c0 -36 -19 -69 -41 -69 -14 0 -19 5 -16 14 3 8 9 30 12 49
6 28 11 34 26 30 10 -3 19 -14 19 -24z"/>
<path d="M4959 1289 c-44 -164 -66 -255 -63 -261 7 -11 96 -3 121 10 31 17 59
106 41 129 -6 8 -2 22 13 43 22 29 31 91 16 106 -4 4 -31 9 -61 12 l-55 4 -12
-43z m85 -38 c-6 -25 -29 -51 -46 -51 -14 0 -9 44 7 67 21 30 47 20 39 -16z
m-29 -103 c3 -7 1 -26 -3 -43 -6 -23 -15 -31 -36 -33 -23 -3 -27 0 -22 15 3
10 8 30 12 46 6 28 40 39 49 15z"/>
<path d="M5256 1322 c-2 -4 -3 -51 -1 -104 2 -60 -2 -116 -10 -148 -13 -50
-13 -51 8 -48 17 2 27 17 43 66 12 34 26 68 31 75 6 6 28 46 51 87 40 73 40
76 19 78 -14 1 -26 -7 -33 -21 -6 -12 -22 -42 -35 -67 l-24 -45 -3 68 c-3 58
-5 67 -22 67 -10 0 -21 -3 -24 -8z"/>
</g>
</svg>
