<svg xmlns="http://www.w3.org/2000/svg" xmlns:xlink="http://www.w3.org/1999/xlink" preserveAspectRatio="xMidYMid" width="21.03" height="39.25" viewBox="0 0 21.03 39.25">
  <defs>
    <style>
      .cls-1 {
        fill: #28b370;
        fill-rule: evenodd;
      }
    </style>
  </defs>
  <path d="M3.902,18.454 L3.902,18.472 L3.982,18.472 L3.982,30.363 L3.902,30.363 L3.902,32.782 L3.987,32.782 L3.987,36.822 L3.902,36.822 L3.902,39.242 L13.530,39.242 L13.530,18.454 L19.021,18.454 L19.021,10.597 L13.663,10.597 L13.663,9.952 C13.663,8.473 13.968,8.110 14.003,8.074 C14.195,7.873 14.674,7.757 15.319,7.757 C16.268,7.757 17.279,7.878 18.320,8.116 L19.590,8.410 L21.022,1.271 L19.953,0.950 C15.776,-0.309 10.982,-0.363 8.045,1.177 C6.496,1.988 5.409,3.079 4.813,4.417 C4.254,5.667 3.982,7.436 3.982,9.833 L3.982,10.598 L-0.001,10.598 L-0.001,18.454 L3.902,18.454 ZM2.506,13.018 L6.488,13.018 L6.488,9.833 C6.488,7.802 6.699,6.303 7.114,5.376 C7.488,4.539 8.185,3.861 9.243,3.305 C11.316,2.221 14.924,2.195 18.137,2.970 L17.625,5.522 C15.362,5.174 13.236,5.324 12.171,6.429 C11.484,7.147 11.162,8.267 11.162,9.960 L11.162,13.020 L16.519,13.020 L16.519,16.054 L11.162,16.054 L11.162,36.814 L6.489,36.814 L6.489,16.054 L2.507,16.054 L2.507,16.052 L2.506,16.052 L2.506,13.018 Z" class="cls-1"/>
</svg>
