<svg xmlns="http://www.w3.org/2000/svg" xmlns:xlink="http://www.w3.org/1999/xlink" preserveAspectRatio="xMidYMid" width="42.03" height="34" viewBox="0 0 42.03 34">
  <defs>
    <style>
      .cls-1 {
        fill: #28b370;
        fill-rule: evenodd;
      }
    </style>
  </defs>
  <path d="M15.127,33.999 C7.266,33.999 0.844,30.308 0.739,30.247 C0.125,29.884 -0.145,29.150 0.091,28.487 C0.329,27.827 1.001,27.408 1.722,27.513 C5.980,28.070 8.946,26.758 10.534,25.721 C6.597,22.804 -2.216,14.572 3.191,2.366 C3.413,1.863 3.904,1.520 4.462,1.478 C5.008,1.441 5.559,1.699 5.859,2.161 C6.020,2.408 9.811,7.985 19.287,9.153 C19.309,4.102 23.518,-0.002 28.686,-0.002 C30.992,-0.002 33.165,0.807 34.885,2.293 C37.372,2.034 39.330,1.978 39.421,1.975 C39.626,1.977 39.821,2.004 39.998,2.070 C40.331,1.950 40.706,1.941 41.066,2.071 C41.846,2.360 42.240,3.214 41.945,3.977 C41.655,4.728 40.262,8.159 38.367,9.914 C38.840,14.181 37.756,20.455 30.759,27.500 C25.813,32.479 20.174,33.999 15.127,33.999 ZM7.989,30.058 C13.413,31.641 21.735,32.337 28.587,25.440 C35.200,18.781 35.864,13.107 35.257,9.521 C35.157,8.924 35.439,8.327 35.969,8.013 C36.651,7.613 37.488,6.326 38.176,4.996 C37.258,5.050 35.949,5.146 34.530,5.310 C34.066,5.356 33.594,5.202 33.265,4.869 C32.046,3.636 30.418,2.958 28.686,2.958 C25.172,2.958 22.313,5.756 22.313,9.192 C22.313,9.641 22.358,10.071 22.451,10.467 C22.553,10.922 22.433,11.396 22.126,11.750 C21.817,12.105 21.348,12.297 20.883,12.269 C12.528,11.775 7.545,8.223 5.118,5.859 C1.788,17.366 13.269,24.033 13.791,24.329 C14.183,24.551 14.455,24.936 14.528,25.374 C14.599,25.813 14.467,26.260 14.166,26.593 C14.042,26.732 11.941,28.991 7.989,30.058 Z" class="cls-1"/>
</svg>
