<svg xmlns="http://www.w3.org/2000/svg" xmlns:xlink="http://www.w3.org/1999/xlink" preserveAspectRatio="xMidYMid" width="33" height="33" viewBox="0 0 33 33">
  <defs>
    <style>
      .cls-1 {
        fill: #28b370;
        fill-rule: evenodd;
      }
    </style>
  </defs>
  <path d="M27.346,-0.003 L5.666,-0.003 C2.542,-0.003 0.010,2.530 0.010,5.655 L0.010,27.342 C0.010,30.466 2.542,33.000 5.666,33.000 L27.346,33.000 C30.469,33.000 33.001,30.466 33.001,27.342 L33.001,5.655 C33.001,2.530 30.469,-0.003 27.346,-0.003 ZM11.357,13.637 L11.357,13.637 C11.359,13.633 11.362,13.630 11.365,13.625 C11.430,13.507 11.501,13.392 11.575,13.279 C11.618,13.213 11.664,13.149 11.709,13.085 C11.760,13.013 11.812,12.944 11.866,12.875 C11.912,12.815 11.958,12.756 12.006,12.699 C12.098,12.590 12.194,12.485 12.293,12.383 C12.341,12.334 12.392,12.286 12.443,12.238 C12.514,12.170 12.587,12.103 12.662,12.039 C12.712,11.995 12.762,11.952 12.813,11.910 C12.930,11.816 13.050,11.726 13.173,11.641 C13.218,11.610 13.265,11.581 13.311,11.552 C13.408,11.488 13.508,11.428 13.609,11.370 C13.658,11.343 13.706,11.314 13.756,11.288 C13.897,11.213 14.040,11.143 14.187,11.080 C14.221,11.065 14.256,11.053 14.290,11.040 C14.416,10.988 14.545,10.941 14.675,10.899 C14.722,10.883 14.768,10.868 14.814,10.854 C14.976,10.806 15.140,10.762 15.307,10.728 C15.325,10.724 15.345,10.721 15.363,10.718 C15.517,10.687 15.673,10.665 15.830,10.646 C15.877,10.641 15.923,10.637 15.969,10.632 C16.146,10.616 16.325,10.605 16.505,10.605 C16.686,10.605 16.864,10.616 17.041,10.632 C17.087,10.637 17.134,10.641 17.180,10.646 C17.338,10.664 17.494,10.687 17.648,10.718 C17.666,10.721 17.686,10.724 17.704,10.728 C17.871,10.762 18.034,10.806 18.196,10.854 C18.243,10.869 18.289,10.883 18.335,10.899 C18.466,10.942 18.594,10.989 18.721,11.040 C18.755,11.054 18.790,11.065 18.823,11.080 C18.970,11.143 19.114,11.213 19.255,11.288 C19.304,11.314 19.352,11.342 19.401,11.369 C19.503,11.427 19.604,11.488 19.703,11.552 C19.747,11.582 19.793,11.609 19.837,11.640 C19.961,11.725 20.082,11.816 20.199,11.910 C20.249,11.951 20.298,11.994 20.347,12.037 C20.423,12.103 20.497,12.170 20.570,12.239 C20.619,12.287 20.669,12.333 20.716,12.381 C20.817,12.484 20.913,12.590 21.005,12.700 C21.053,12.756 21.097,12.814 21.142,12.872 C21.197,12.942 21.251,13.014 21.303,13.087 C21.348,13.150 21.393,13.213 21.435,13.278 C22.041,14.204 22.396,15.309 22.396,16.498 C22.396,19.752 19.758,22.392 16.505,22.392 C13.251,22.392 10.614,19.752 10.614,16.498 C10.615,15.459 10.885,14.485 11.357,13.637 ZM29.467,25.583 C29.467,27.875 27.609,29.731 25.319,29.731 L7.692,29.731 C5.401,29.731 3.545,27.875 3.545,25.583 L3.545,13.637 L7.524,13.637 C7.237,14.540 7.080,15.501 7.080,16.498 C7.080,21.705 11.300,25.927 16.506,25.927 C21.711,25.927 25.932,21.705 25.932,16.498 C25.932,15.501 25.774,14.540 25.487,13.637 L29.467,13.637 L29.467,25.583 ZM29.467,6.598 C29.467,6.858 29.256,7.069 28.995,7.069 L26.403,7.069 C26.142,7.069 25.932,6.858 25.932,6.598 L25.932,4.005 C25.932,3.745 26.142,3.533 26.403,3.533 L28.995,3.533 C29.256,3.533 29.467,3.745 29.467,4.005 L29.467,6.598 Z" class="cls-1"/>
</svg>
