<svg xmlns="http://www.w3.org/2000/svg" xmlns:xlink="http://www.w3.org/1999/xlink" preserveAspectRatio="xMidYMid" width="57" height="70" viewBox="0 0 57 70">
  <defs>
    <style>
      .cls-1 {
        fill: #fff;
        fill-rule: evenodd;
      }
    </style>
  </defs>
  <path d="M28.502,69.995 C27.442,69.995 26.584,69.133 26.584,68.069 C26.584,62.866 20.521,57.212 15.300,53.933 C5.867,48.973 0.010,39.272 0.010,28.593 C0.010,12.825 12.791,-0.003 28.502,-0.003 C44.213,-0.003 56.995,12.826 56.995,28.593 C56.995,39.271 51.138,48.973 41.704,53.933 C36.484,57.212 30.421,62.866 30.421,68.069 C30.421,69.133 29.562,69.995 28.502,69.995 ZM28.502,3.848 C14.907,3.848 3.847,14.949 3.847,28.593 C3.847,37.854 8.941,46.269 17.140,50.552 C17.184,50.575 17.227,50.600 17.269,50.626 C19.508,52.027 25.426,56.080 28.502,61.466 C31.579,56.080 37.496,52.027 39.736,50.626 C39.778,50.600 39.820,50.576 39.865,50.552 C48.064,46.269 53.157,37.855 53.157,28.593 C53.157,14.949 42.097,3.848 28.502,3.848 ZM28.502,40.436 C21.996,40.436 16.702,35.123 16.702,28.593 C16.702,22.063 21.996,16.750 28.502,16.750 C35.009,16.750 40.302,22.063 40.302,28.593 C40.302,35.123 35.008,40.436 28.502,40.436 ZM28.502,20.602 C24.112,20.602 20.540,24.186 20.540,28.593 C20.540,33.000 24.112,36.585 28.502,36.585 C32.893,36.585 36.465,33.000 36.465,28.593 C36.465,24.186 32.893,20.602 28.502,20.602 Z" class="cls-1"/>
</svg>
