<svg xmlns="http://www.w3.org/2000/svg" xmlns:xlink="http://www.w3.org/1999/xlink" preserveAspectRatio="xMidYMid" width="30" height="30" viewBox="0 0 30 30">
  <defs>
    <style>
      .cls-1 {
        fill: #05562f;
        fill-rule: evenodd;
      }
    </style>
  </defs>
  <path d="M14.997,30.006 C6.718,30.006 -0.004,23.284 -0.004,15.005 C-0.004,6.726 6.718,0.004 14.997,0.004 C23.276,0.004 29.998,6.726 29.998,15.005 C29.998,23.284 23.276,30.006 14.997,30.006 ZM14.997,2.463 C8.070,2.463 2.455,8.078 2.455,15.005 C2.455,21.932 8.070,27.547 14.997,27.547 C21.924,27.547 27.539,21.932 27.539,15.005 C27.539,8.078 21.924,2.463 14.997,2.463 ZM14.956,22.792 C14.300,22.792 13.726,22.260 13.726,21.563 L13.726,13.775 C13.726,13.079 14.259,12.546 14.956,12.546 C15.653,12.546 16.185,13.079 16.185,13.775 L16.185,21.563 C16.185,22.260 15.653,22.792 14.956,22.792 ZM14.956,10.496 C14.300,10.496 13.726,9.964 13.726,9.267 L13.726,8.037 C13.726,7.341 14.259,6.808 14.956,6.808 C15.653,6.808 16.185,7.341 16.185,8.037 L16.185,9.267 C16.185,9.964 15.653,10.496 14.956,10.496 Z" class="cls-1"/>
</svg>
